<?xml version="1.0" encoding="utf-8"?>
<!-- Generator: Adobe Illustrator 16.0.0, SVG Export Plug-In . SVG Version: 6.00 Build 0)  -->
<!DOCTYPE svg PUBLIC "-//W3C//DTD SVG 1.1//EN" "http://www.w3.org/Graphics/SVG/1.1/DTD/svg11.dtd">
<svg version="1.1" id="Layer_1" xmlns="http://www.w3.org/2000/svg" xmlns:xlink="http://www.w3.org/1999/xlink" x="0px" y="0px"
	 width="47px" height="55px" viewBox="0 0 47 55" enable-background="new 0 0 47 55" xml:space="preserve">
<g>
	<path fill="#FFFFFF" d="M12.43,22.305l-0.45,0.03c-3.12,0-5.74-1.035-7.86-3.105C2,17.16,0.94,14.58,0.94,11.49
		c0-3.091,1.06-5.671,3.18-7.74c2.12-2.07,4.74-3.105,7.86-3.105s5.74,1.035,7.86,3.105c2.12,2.069,3.18,4.646,3.18,7.725
		c0,2.34-0.63,4.415-1.89,6.226c-1.26,1.81-2.94,3.115-5.04,3.915c0.68,0.899,1.54,1.35,2.58,1.35c0.76,0,1.505-0.2,2.235-0.6
		c0.73-0.4,1.285-0.92,1.665-1.561l2.01,2.79c-1.74,1.84-3.73,2.761-5.97,2.761c-1.28,0-2.51-0.36-3.69-1.08
		C13.74,24.555,12.91,23.565,12.43,22.305z M17.245,6.104c-1.43-1.479-3.185-2.22-5.265-2.22s-3.835,0.74-5.265,2.22
		C5.285,7.585,4.57,9.38,4.57,11.49c0,2.109,0.715,3.904,2.145,5.385c1.43,1.48,3.185,2.22,5.265,2.22s3.835-0.739,5.265-2.22
		c1.43-1.48,2.145-3.275,2.145-5.385C19.39,9.38,18.675,7.585,17.245,6.104z"/>
	<path fill="#FFFFFF" d="M45.43,1.125v11.91c0,3.02-0.83,5.345-2.49,6.975s-3.754,2.445-6.285,2.445
		c-2.529,0-4.65-0.815-6.359-2.445c-1.711-1.63-2.564-3.895-2.564-6.795V1.125h3.568v11.609c0,1.961,0.477,3.516,1.426,4.665
		c0.949,1.15,2.244,1.726,3.885,1.726s2.93-0.556,3.871-1.665c0.939-1.11,1.41-2.635,1.41-4.575V1.125H45.43z"/>
	<path fill="#FFFFFF" d="M8.38,32.65c-0.62,0.49-0.93,1.125-0.93,1.904c0,0.78,0.33,1.396,0.99,1.846
		c0.66,0.449,2.065,0.935,4.215,1.455c2.149,0.52,3.77,1.25,4.86,2.189c1.09,0.94,1.635,2.325,1.635,4.155s-0.69,3.314-2.07,4.455
		c-1.38,1.14-3.19,1.71-5.43,1.71c-3.28,0-6.19-1.13-8.73-3.391l2.22-2.67c2.12,1.841,4.32,2.761,6.6,2.761
		c1.14,0,2.044-0.245,2.715-0.735c0.67-0.49,1.005-1.14,1.005-1.95c0-0.81-0.315-1.439-0.945-1.89s-1.715-0.86-3.255-1.23
		c-1.541-0.369-2.71-0.709-3.51-1.02s-1.51-0.715-2.13-1.215c-1.24-0.94-1.86-2.341-1.86-4.2c0-1.86,0.67-3.355,2.01-4.485
		s3.06-1.695,5.16-1.695c2.84,0,5.4,0.791,7.68,2.37l-1.98,2.82c-1.72-1.279-3.64-1.92-5.76-1.92C9.83,31.915,9,32.16,8.38,32.65z"
		/>
	<path fill="#FFFFFF" d="M33.91,50.305l-0.449,0.03c-3.121,0-5.742-1.035-7.861-3.104c-2.12-2.07-3.18-4.65-3.18-7.74
		s1.06-5.67,3.18-7.74c2.119-2.07,4.74-3.105,7.861-3.105c3.119,0,5.738,1.035,7.859,3.105c2.119,2.07,3.18,4.646,3.18,7.725
		c0,2.341-0.631,4.416-1.891,6.226c-1.26,1.811-2.939,3.115-5.039,3.915c0.68,0.899,1.539,1.35,2.58,1.35
		c0.76,0,1.504-0.2,2.234-0.6c0.73-0.4,1.285-0.92,1.666-1.561l2.01,2.79c-1.74,1.84-3.73,2.761-5.971,2.761
		c-1.279,0-2.51-0.36-3.689-1.08C35.219,52.555,34.391,51.565,33.91,50.305z M38.725,34.105c-1.43-1.48-3.186-2.221-5.264-2.221
		c-2.082,0-3.836,0.74-5.266,2.221c-1.43,1.479-2.145,3.274-2.145,5.385s0.715,3.905,2.145,5.385c1.43,1.48,3.184,2.22,5.266,2.22
		c2.078,0,3.834-0.739,5.264-2.22c1.43-1.479,2.145-3.274,2.145-5.385S40.154,35.585,38.725,34.105z"/>
</g>
</svg>
